<svg width="18" height="18" viewBox="0 0 18 18" fill="none" xmlns="http://www.w3.org/2000/svg">
<path d="M11.6823 4.78888H6.3175C5.4612 4.78888 4.76453 5.48555 4.76453 6.34186V11.7067C4.76453 12.563 5.4612 13.2599 6.3175 13.2599H11.6823C12.5386 13.2599 13.2355 12.5632 13.2355 11.7067V6.34186C13.2355 5.48555 12.5388 4.78888 11.6823 4.78888ZM8.99991 11.813C7.46238 11.813 6.21142 10.562 6.21142 9.02427C6.21142 7.48673 7.46238 6.23577 8.99991 6.23577C10.5376 6.23577 11.7886 7.48673 11.7886 9.02427C11.7886 10.5618 10.5374 11.813 8.99991 11.813ZM11.8783 6.81232C11.5143 6.81232 11.2183 6.51632 11.2183 6.15255C11.2183 5.78877 11.5143 5.49277 11.8783 5.49277C12.242 5.49277 12.538 5.78877 12.538 6.15255C12.538 6.51632 12.242 6.81232 11.8783 6.81232Z" fill="white"/>
<path d="M8.99998 7.41412C8.11239 7.41412 7.38965 8.13647 7.38965 9.02405C7.38965 9.91204 8.11239 10.6346 8.99998 10.6346C9.88797 10.6346 10.6101 9.91204 10.6101 9.02405C10.6101 8.13667 9.88777 7.41412 8.99998 7.41412Z" fill="white"/>
<path d="M9 0C4.02964 0 0 4.02964 0 9C0 13.9704 4.02964 18 9 18C13.9704 18 18 13.9704 18 9C18 4.02964 13.9704 0 9 0ZM14.4138 11.7067C14.4138 13.2129 13.1887 14.438 11.6824 14.438H6.31759C4.81154 14.438 3.58624 13.2129 3.58624 11.7067V6.34185C3.58624 4.8358 4.81154 3.61051 6.31759 3.61051H11.6824C13.1887 3.61051 14.4138 4.8358 14.4138 6.34185V11.7067Z" fill="white"/>
</svg>
